<?xml version="1.0" standalone="no"?><!DOCTYPE svg PUBLIC "-//W3C//DTD SVG 1.1//EN" "http://www.w3.org/Graphics/SVG/1.1/DTD/svg11.dtd"><svg t="1588840676782" class="icon" viewBox="0 0 1024 1024" version="1.1" xmlns="http://www.w3.org/2000/svg" p-id="3237" xmlns:xlink="http://www.w3.org/1999/xlink" width="200" height="200"><defs><style type="text/css"></style></defs><path d="M544 672h224c17.673 0 32-14.327 32-32 0-17.673-14.327-32-32-32H544V416h224c17.673 0 32-14.327 32-32 0-11.06-5.61-20.808-14.14-26.556a32.162 32.162 0 0 0-3.94-4.778L675.883 246.627c-12.497-12.496-32.758-12.496-45.255 0-12.496 12.497-12.496 32.758 0 45.255L690.745 352H544V192c0-35.346 28.654-64 64-64h256c35.346 0 64 28.654 64 64v640c0 35.346-28.654 64-64 64H608c-35.346 0-64-28.654-64-64V672z m-64 0v160c0 35.346-28.654 64-64 64H160c-35.346 0-64-28.654-64-64V192c0-35.346 28.654-64 64-64h256c35.346 0 64 28.654 64 64v160H256c-17.673 0-32 14.327-32 32 0 17.673 14.327 32 32 32h224v192H256c-17.673 0-32 14.327-32 32 0 12.246 6.88 22.886 16.984 28.265a31.996 31.996 0 0 0 5.643 7.617l106.04 106.039c12.496 12.497 32.757 12.497 45.254 0s12.497-32.758 0-45.255L333.255 672H480z" p-id="3238"></path></svg>