<?xml version="1.0" standalone="no"?><!DOCTYPE svg PUBLIC "-//W3C//DTD SVG 1.1//EN" "http://www.w3.org/Graphics/SVG/1.1/DTD/svg11.dtd"><svg t="1588819375375" class="icon" viewBox="0 0 1152 1024" version="1.1" xmlns="http://www.w3.org/2000/svg" p-id="19170" xmlns:xlink="http://www.w3.org/1999/xlink" width="225" height="200"><defs><style type="text/css"></style></defs><path d="M1142.360731 548.478426l-251.511354 438.384931a72.317514 72.317514 0 0 1-63.9978 37.118724H325.108824a71.037558 71.037558 0 0 1-63.9978-37.118724L10.239648 548.478426a70.39758 70.39758 0 0 1 0-72.957492L261.751002 37.136003a71.037558 71.037558 0 0 1 63.9978-37.118724h501.742753a72.317514 72.317514 0 0 1 63.9978 37.118724l251.511354 438.384931a74.237448 74.237448 0 0 1 0 72.957492zM795.492655 128.01288H356.467746L136.955292 511.99968l219.512454 383.9868h439.024909l220.152432-383.9868zM575.980201 703.99308a191.9934 191.9934 0 1 1 191.9934-191.9934 191.9934 191.9934 0 0 1-191.9934 191.9934z m0-255.9912a63.9978 63.9978 0 1 0 63.9978 63.9978 63.9978 63.9978 0 0 0-63.9978-63.9978z" p-id="19171"></path></svg>