<?xml version="1.0" standalone="no"?><!DOCTYPE svg PUBLIC "-//W3C//DTD SVG 1.1//EN" "http://www.w3.org/Graphics/SVG/1.1/DTD/svg11.dtd"><svg t="1588819269949" class="icon" viewBox="0 0 1024 1024" version="1.1" xmlns="http://www.w3.org/2000/svg" p-id="17029" xmlns:xlink="http://www.w3.org/1999/xlink" width="200" height="200"><defs><style type="text/css"></style></defs><path d="M980.114286 131.657143c0-14.628571-7.314286-21.942857-21.942857-21.942857H65.828571c-14.628571 0-21.942857 7.314286-21.942857 21.942857v753.371428c0 29.257143 7.314286 36.571429 29.257143 36.571429h877.714286c21.942857 0 21.942857-14.628571 21.942857-29.257143 7.314286-197.485714 7.314286-716.8 7.314286-760.685714zM438.857143 168.228571c21.942857 0 36.571429 14.628571 36.571428 36.571429s-14.628571 36.571429-36.571428 36.571429-36.571429-14.628571-36.571429-36.571429c0-14.628571 14.628571-36.571429 36.571429-36.571429z m-138.971429 0c21.942857 0 36.571429 14.628571 36.571429 36.571429s-14.628571 36.571429-36.571429 36.571429-36.571429-14.628571-36.571428-36.571429c0-14.628571 14.628571-36.571429 36.571428-36.571429z m-138.971428 0c21.942857 0 36.571429 14.628571 36.571428 36.571429s-14.628571 36.571429-36.571428 36.571429-36.571429-14.628571-36.571429-36.571429c0-14.628571 14.628571-36.571429 36.571429-36.571429z m351.085714 146.285715h373.028571c7.314286 0 14.628571 0 14.628572 7.314285v490.057143c0 21.942857-7.314286 29.257143-29.257143 29.257143H153.6c-21.942857 0-21.942857-7.314286-21.942857-29.257143V329.142857c0-14.628571 0-14.628571 14.628571-14.628571h365.714286z m226.742857 336.457143h-219.428571c-14.628571 0-14.628571 7.314286-14.628572 7.314285v73.142857c0 7.314286 0 7.314286 7.314286 7.314286h226.742857c7.314286 0 7.314286 0 7.314286-7.314286V658.285714s0-7.314286-7.314286-7.314285z" p-id="17030"></path><path d="M292.571429 716.8c-7.314286 0-14.628571-7.314286-21.942858-7.314286l-14.628571-29.257143c-14.628571-14.628571 0-29.257143 7.314286-36.571428 7.314286-7.314286 29.257143-21.942857 58.514285-43.885714 21.942857-14.628571 51.2-36.571429 73.142858-51.2-21.942857-14.628571-124.342857-87.771429-131.657143-95.085715-14.628571-14.628571-14.628571-21.942857-14.628572-29.257143 7.314286-14.628571 14.628571-21.942857 21.942857-29.257142 0 0 7.314286-7.314286 14.628572-7.314286s14.628571 7.314286 14.628571 7.314286c14.628571 0 160.914286 109.714286 175.542857 117.028571 14.628571 7.314286 14.628571 21.942857 14.628572 29.257143 0 14.628571-7.314286 21.942857-21.942857 36.571428-14.628571 14.628571-73.142857 65.828571-117.028572 95.085715l-43.885714 29.257143c-7.314286 7.314286-7.314286 14.628571-14.628571 14.628571z" p-id="17031"></path></svg>