<?xml version="1.0" standalone="no"?><!DOCTYPE svg PUBLIC "-//W3C//DTD SVG 1.1//EN" "http://www.w3.org/Graphics/SVG/1.1/DTD/svg11.dtd"><svg t="1585278126106" class="icon" viewBox="0 0 1024 1024" version="1.1" xmlns="http://www.w3.org/2000/svg" p-id="6318" xmlns:xlink="http://www.w3.org/1999/xlink" width="200" height="200"><defs><style type="text/css"></style></defs><path d="M0 0h1024v1024H0z" fill="#3CA980" p-id="6319"></path><path d="M702.171 497.371H424.229c-5.698 0 4.023-3.789 0 0s0-5.361 0 0V563.2h-102.4a30.267 30.267 0 0 1-29.257-29.148v-50.52c0.066-14.336 18.373-22.674 36.571-22.732h343.772c15.44 0 28.73 17.868 29.257 32.394v4.177zM424.229 629.029v95.086h-95.087c-15.813 0-36.571-15.426-36.571-30.303v-33.434c0-14.885 20.758-31.349 36.571-31.349h95.086zM321.193 292.571h346.844c15.812 0 34.134 18.556 34.134 33.441v33.434c0 14.877-18.286 33.433-34.136 33.433H326.7c-15.806 0-34.128-7.928-34.128-22.806v-50.527a27.794 27.794 0 0 1 28.62-26.938v-0.037z m35.182 78.343a26.163 26.163 0 1 0-27.736-26.14 26.975 26.975 0 0 0 27.736 26.14z m382.367 170.342h29.257v168.228h36.571v29.257h-57.782c-8.88 0.49-8.046-16.625-8.046-29.257V541.256z m-138.972 0h102.4v29.257h-36.571v168.228H636.34V570.514h-36.57v-29.257z m-102.4 0h65.829v29.257H497.37v36.571h65.829v29.258H497.37v73.143h80.457v29.257h-84.443c-23.88 0-32.584-8.418-32.584-36.571V541.256c20.005-0.11 24.766 0 36.571 0z" fill="#FFFFFF" p-id="6320"></path></svg>