<?xml version="1.0" standalone="no"?><!DOCTYPE svg PUBLIC "-//W3C//DTD SVG 1.1//EN" "http://www.w3.org/Graphics/SVG/1.1/DTD/svg11.dtd"><svg t="1588817883734" class="icon" viewBox="0 0 1095 1024" version="1.1" xmlns="http://www.w3.org/2000/svg" p-id="5725" xmlns:xlink="http://www.w3.org/1999/xlink" width="213.8671875" height="200"><defs><style type="text/css"></style></defs><path d="M1000.177753 0H95.288988A95.574284 95.574284 0 0 0 0 95.288988v666.737619a95.574284 95.574284 0 0 0 95.288988 95.288988h404.835551v71.324093H311.971582a50.925402 50.925402 0 0 0-49.926865 40.440761 47.145225 47.145225 0 0 0 47.644494 54.776903h473.877272a50.925402 50.925402 0 0 0 49.926865-40.440761 47.145225 47.145225 0 0 0-47.644494-54.776903H595.342202v-71.324093h404.835551a95.574284 95.574284 0 0 0 95.288988-95.288988V95.288988A95.574284 95.574284 0 0 0 1000.177753 0z m-142.648186 476.302292h-156.913004l-54.776903 161.90569a19.114857 19.114857 0 0 1-33.308351 4.778714l-171.177823-238.151145-21.397228 54.776903a20.683987 20.683987 0 0 1-21.397228 14.264818h-181.876436a50.996726 50.996726 0 0 1-49.926865-40.44076 47.145225 47.145225 0 0 1 47.644494-54.776903h133.376053l54.776904-138.154768a19.186181 19.186181 0 0 1 33.308351-4.778714l166.613081 228.665041 23.822247-71.324093a22.966358 22.966358 0 0 1 21.397228-16.689837h204.77147a50.925402 50.925402 0 0 1 49.926865 40.512084c7.132409 35.662046-14.264819 59.555617-45.219475 59.555618z" p-id="5726"></path></svg>