<?xml version="1.0" standalone="no"?><!DOCTYPE svg PUBLIC "-//W3C//DTD SVG 1.1//EN" "http://www.w3.org/Graphics/SVG/1.1/DTD/svg11.dtd"><svg t="1588818027202" class="icon" viewBox="0 0 1024 1024" version="1.1" xmlns="http://www.w3.org/2000/svg" p-id="6538" xmlns:xlink="http://www.w3.org/1999/xlink" width="200" height="200"><defs><style type="text/css"></style></defs><path d="M804.279 415.89H293.742a43.886 43.886 0 0 0-43.886 43.886v126.318H125.221a58.514 58.514 0 0 1-58.515-58.515V417.865a58.514 58.514 0 0 1 58.515-58.514h620.544a58.514 58.514 0 0 1 58.514 56.54zM249.856 642.78v226.742H125.221a58.514 58.514 0 0 1-58.515-58.514V701.294a58.514 58.514 0 0 1 58.515-58.515h124.635zM125.221 75.775h620.544a58.514 58.514 0 0 1 58.514 58.514v109.788a58.514 58.514 0 0 1-58.514 58.514H125.22a58.514 58.514 0 0 1-58.515-58.514V134.363a58.514 58.514 0 0 1 58.515-58.514z m71.899 170.13a56.686 56.686 0 1 0 0-113.444 56.686 56.686 0 0 0 0 113.371zM811.74 472.65h87.77v385.463h74.168v88.942H855.625c-24.283 0-43.886-22.09-43.886-49.445V472.722z m-281.015 0h254.61v89.088H706.34v385.39h-87.772V561.664h-87.771v-88.869z m-162.378 0h136.046v89.088h-122.88v88.942h122.88v88.942h-122.88v108.69h122.88v98.816H337.627c-24.283 0-43.958-22.09-43.958-49.445V522.094c0-27.283 19.748-49.372 43.885-49.372h30.72z" p-id="6539"></path></svg>