<svg t="1588819750250" class="icon" viewBox="0 0 1024 1024" version="1.1" xmlns="http://www.w3.org/2000/svg" p-id="21142" width="200" height="200"><path d="M944.4 415.9H830.2c-5.9-18.7-13.3-36.6-22.3-53.7l80.8-80.8c19.4-19.4 19.4-50.7 0-70.1l-70.1-70.1c-19.4-19.3-50.7-19.3-70.1 0L667.7 222c-17.1-8.9-35-16.4-53.7-22.3V76c0-22.1-17.9-40-40-40H455.9c-22.1 0-40 17.9-40 40v123.8c-18.7 5.9-36.6 13.3-53.7 22.3l-80.8-80.8c-19.4-19.3-50.7-19.3-70.1 0l-70.1 70.1c-19.4 19.4-19.4 50.7 0 70.1l80.8 80.8c-8.9 17.1-16.4 35-22.3 53.7H85.6C58.2 416 36 438.2 36 465.6v99.1c0 27.4 22.2 49.6 49.6 49.6h114.2c5.9 18.7 13.3 36.6 22.3 53.7l-80.8 80.8c-19.4 19.3-19.4 50.7 0 70.1l70.1 70.1c19.4 19.4 50.7 19.4 70.1 0l80.8-80.8c17.1 8.9 35 16.4 53.7 22.3V954c0 22.1 17.9 40 40 40h118.2c22.1 0 40-17.9 40-40V830.2c18.7-5.9 36.6-13.3 53.7-22.3l80.8 80.8c19.4 19.4 50.7 19.4 70.1 0l70.1-70.1c19.4-19.4 19.4-50.7 0-70.1l-80.8-80.8c8.9-17.1 16.4-35 22.3-53.7h114.2c27.4 0 49.6-22.2 49.6-49.6v-99.1c-0.2-27.2-22.4-49.4-49.8-49.4z m0 132.1c0 9.1-7.4 16.5-16.5 16.5H791.4c-7.2 40.7-23.2 78.3-46 110.9l96.5 96.5c6.5 6.5 6.5 16.9 0 23.4L795.3 842c-6.4 6.4-16.9 6.4-23.4 0l-96.5-96.5c-32.6 22.7-70.2 38.7-110.9 46v133c0 11-9 20-20 20h-59.1c-11 0-20-9-20-20v-133c-40.7-7.2-78.3-23.2-110.9-46L258.1 842c-6.5 6.4-16.9 6.4-23.4 0L188 795.3c-6.5-6.5-6.5-16.9 0-23.4l96.5-96.5c-22.7-32.6-38.7-70.2-46-110.9H102.1c-9.1 0-16.5-7.4-16.5-16.5v-66c0-9.1 7.4-16.5 16.5-16.5h136.5c7.2-40.7 23.2-78.3 46-110.8L188 258c-6.5-6.4-6.5-16.9 0-23.4l46.7-46.7c6.5-6.4 16.9-6.4 23.4 0l96.6 96.6c32.6-22.7 70.2-38.7 110.8-46v-133c0-11 9-20 20-20h59.1c11 0 20 9 20 20v133c40.6 7.2 78.3 23.2 110.8 46l96.6-96.6c6.5-6.4 16.9-6.4 23.4 0l46.7 46.7c6.5 6.5 6.5 16.9 0 23.4l-96.5 96.5c22.7 32.6 38.7 70.2 46 110.8h136.5c9.1 0 16.5 7.4 16.5 16.5V548zM515 366.3c-82.1 0-148.7 66.6-148.7 148.7S432.9 663.7 515 663.7 663.7 597.1 663.7 515 597.1 366.3 515 366.3z m0 247.8c-54.7 0-99.1-44.4-99.1-99.1 0-54.7 44.4-99.1 99.1-99.1 54.7 0 99.1 44.4 99.1 99.1 0 54.7-44.4 99.1-99.1 99.1z" p-id="21143"></path></svg>